<?xml version="1.0" encoding="UTF-8"?>
<svg id="Layer_1" data-name="Layer 1" xmlns="http://www.w3.org/2000/svg" version="1.1" viewBox="0 0 32 32">
  <defs>
    <style>
      .cls-1 {
        fill: #17173a;
        fill-rule: evenodd;
      }

      .cls-1, .cls-2 {
        stroke-width: 0px;
      }

      .cls-2 {
        fill: #fff;
      }
    </style>
  </defs>
  <path class="cls-1" d="M3.6,32h24.9c2,0,3.6-1.6,3.6-3.6V3.6c0-2-1.6-3.6-3.6-3.6H3.6C1.6,0,0,1.6,0,3.6v24.9c0,2,1.6,3.6,3.6,3.6Z"/>
  <path class="cls-2" d="M7.2,25.3c-.7,0-1.4-.3-1.9-.8-.5-.5-.8-1.2-.8-1.9v-13.2c0-.7.3-1.4.8-1.9s1.2-.8,1.9-.8h17.5c.7,0,1.4.3,1.9.8.5.5.8,1.2.8,1.9v13.2c0,.7-.3,1.4-.8,1.9s-1.2.8-1.9.8H7.2ZM24.3,22.1v-9.6l-8.3,5.2-8.3-5.2v9.6h16.6ZM16,14.3l7.1-4.4h-14.2l7.1,4.4Z"/>
</svg>