<svg width="32" height="32" viewBox="0 0 32 32" fill="none" xmlns="http://www.w3.org/2000/svg">
<path fill-rule="evenodd" clip-rule="evenodd" d="M3.55556 32H28.4444C30.4089 32 32 30.4089 32 28.4444V3.55556C32 1.59111 30.4089 0 28.4444 0H3.55556C1.59111 0 0 1.59111 0 3.55556V28.4444C0 30.4089 1.59111 32 3.55556 32Z" fill="#17173A"/>
<path fill-rule="evenodd" clip-rule="evenodd" d="M27.5554 27.5556H22.8088V19.4667C22.8088 17.2489 21.9643 16.0089 20.2132 16.0089C18.3021 16.0089 17.3066 17.2978 17.3066 19.4667V27.5556H12.7288V12.1467H17.3066V14.2222C17.3066 14.2222 18.6843 11.6756 21.951 11.6756C25.2177 11.6756 27.5599 13.6711 27.5599 17.8V27.5556H27.5554ZM7.26656 10.1289C5.70656 10.1289 4.44434 8.85778 4.44434 7.28444C4.44434 5.71111 5.70656 4.44 7.26656 4.44C8.82656 4.44 10.0888 5.71111 10.0888 7.28444C10.0888 8.85778 8.82656 10.1289 7.26656 10.1289ZM4.90211 27.5556H9.67545V12.1467H4.90211V27.5556Z" fill="white"/>
</svg>
