<svg width="120" height="120" viewBox="0 0 120 120" fill="none" xmlns="http://www.w3.org/2000/svg">
<path d="M102.8 74.5L111.4 78.7C114.3 80.1 114.9 83.3 113.6 86C112.3 88.8 109.4 90.2 106.5 88.8L97.8999 84.6L98.6999 83L107.3 87.2C109.3 88.2 111.2 87.1 112.1 85.2C113 83.3 112.7 81.2 110.6 80.2L102 76L102.8 74.5Z" fill="#FF9900"/>
<path d="M105.6 67.5C105.3 69.4 106.1 70.8 107.5 71C109 71.3 109.9 69.6 110.3 68.6L110.9 67.2C111.5 65.8 112.8 63.4 115.5 63.8C117.8 64.2 119.3 66.4 118.8 69.6C118.3 72.7 116.4 74.3 114 74.1L114.3 72.3C115.9 72.4 116.9 71 117.2 69.3C117.5 67.3 116.7 65.6 115.2 65.4C113.8 65.2 113 66.4 112.4 67.9L111.6 69.6C110.6 71.7 109.2 72.9 107.3 72.6C104.9 72.2 103.7 69.8 104.1 67.1C104.6 64.3 106.5 62.6 108.7 62.9L108.4 64.6C106.9 64.6 105.9 65.8 105.6 67.5Z" fill="#FF9900"/>
<path d="M105.1 59.7L104.3 51L105.8 50.9L106.5 57.9L111.4 57.4L110.8 50.9L112.3 50.8L112.9 57.3L117.8 56.8L117.1 49.7L118.6 49.6L119.4 58.4L105.1 59.7Z" fill="#FF9900"/>
<path d="M103.7 48.7L102 44.1C100.8 40.9 102.1 38.8 104.5 37.9C106.3 37.2 108 37.5 109.2 39L113.7 33.9L114.4 35.8L110.1 40.6C110.1 40.7 110.2 40.8 110.2 40.9L111.3 43.9L116.6 42L117.2 43.6L103.7 48.7ZM108.8 41.6C108 39.4 106.7 38.9 105.1 39.5C103.5 40.1 102.7 41.3 103.5 43.5L104.6 46.4L109.9 44.4L108.8 41.6Z" fill="#FF9900"/>
<path d="M93.6001 10.5C96.7001 12.6 97.2001 16.5 94.6001 20.3C92.0001 24.1 88.1001 24.9 85.1001 22.8C82.0001 20.7 81.5001 16.8 84.1001 13C86.7001 9.29999 90.6001 8.39999 93.6001 10.5ZM86.1001 21.4C88.3001 22.9 91.1002 22.4 93.3002 19.3C95.4002 16.2 94.9001 13.3 92.7001 11.8C90.5001 10.3 87.7001 10.8 85.5001 13.9C83.4001 17.1 83.9001 19.9 86.1001 21.4Z" fill="#FF9900"/>
<path d="M77.7999 18.2L73.0999 16.7C69.8999 15.7 68.9999 13.4 69.7999 11C70.3999 9.19999 71.6999 7.99999 73.5999 7.99999L72.2999 1.29999L74.1999 1.89999L75.3999 8.19999C75.4999 8.19999 75.5999 8.29999 75.7999 8.29999L78.7999 9.29999L80.4999 3.89999L82.1999 4.39999L77.7999 18.2ZM75.3999 9.79999C73.1999 9.09999 71.9999 9.79999 71.4999 11.5C70.9999 13.2 71.4999 14.5 73.6999 15.2L76.5999 16.1L78.2999 10.7L75.3999 9.79999Z" fill="#FF9900"/>
<path d="M65.4999 0.399994L67.1999 0.599994L65.5999 15L63.8999 14.8L65.4999 0.399994Z" fill="#FF9900"/>
<path d="M60.2999 14.4L51.5999 15.1L51.4999 13.5L58.4999 13L58.0999 8.1L51.5999 8.6L51.4999 7L57.9999 6.6L57.5999 1.7L50.4999 2.2L50.3999 0.6L59.1999 0L60.2999 14.4Z" fill="#FF9900"/>
<path d="M33.5 5.79999L35.1 5.19999L46.5 13.2H46.6L42.7 2.39999L44.3 1.79999L49.3 15.4L47.7 16L36.4 7.99999H36.3L40.2 18.7L38.6 19.3L33.5 5.79999Z" fill="#FF9900"/>
<path d="M36.8998 20.3L28.1998 26.8L27.2998 25.6L30.9998 22.9L23.2998 12.5L24.6998 11.5L32.3998 21.9L36.0998 19.2L36.8998 20.3Z" fill="#FF9900"/>
<path d="M26.8001 28.3L21.3001 35.1L20.1001 34.1L24.5001 28.6L20.7001 25.5L16.6001 30.6L15.4001 29.6L19.5001 24.5L15.7001 21.4L11.3001 26.9L10.1001 25.9L15.6001 19L26.8001 28.3Z" fill="#FF9900"/>
<path d="M6.69991 31.4L19.9999 37.1L18.1999 41.4C16.4999 45.3 12.9999 46.5 8.89991 44.7C4.69991 42.9 3.19991 39.5 4.89991 35.5L6.69991 31.4ZM6.49991 36C5.09991 39.3 6.39991 41.8 9.69991 43.2C12.8999 44.6 15.5999 43.9 16.8999 40.7L17.9999 38.1L7.49991 33.6L6.49991 36Z" fill="#FF9900"/>
<path d="M0 67.6L14.2 64.5L15.2 69.1C16.1 73.2 14 76.2 9.6 77.2C5.2 78.2 2 76.3 1 72L0 67.6ZM2.5 71.5C3.3 75 5.8 76.2 9.2 75.5C12.6 74.7 14.4 72.6 13.6 69.3L13 66.5L1.9 69L2.5 71.5Z" fill="#FF9900"/>
<path d="M17.6999 77.7L21.8999 85.4L20.4999 86.1L17.0999 80L12.7999 82.3L15.8999 88.1L14.4999 88.8L11.3999 83L7.0999 85.3L10.4999 91.6L9.0999 92.3L4.8999 84.5L17.6999 77.7Z" fill="#FF9900"/>
<path d="M25.3998 91.7C24.0998 90.3 22.4998 90 21.4998 91C20.3998 92.1 21.0998 93.7 21.5998 94.7L22.2998 96.1C22.9998 97.5 24.0998 100 22.0998 101.8C20.3998 103.4 17.6998 103.3 15.4998 100.8C13.3998 98.5 13.2998 96 14.8998 94.3L16.0998 95.6C14.9998 96.8 15.4998 98.5 16.5998 99.7C17.9998 101.2 19.7998 101.6 20.8998 100.5C21.9998 99.5 21.3998 98.2 20.6998 96.7L19.8998 95C18.7998 92.9 18.6998 91.1 20.1998 89.7C21.9998 88 24.6998 88.6 26.4998 90.6C28.3998 92.7 28.5998 95.3 26.9998 96.8L25.7998 95.6C26.7998 94.5 26.5998 93 25.3998 91.7Z" fill="#FF9900"/>
<path d="M25.1002 108.8L23.7002 107.8L32.2002 96.1L33.6002 97.1L25.1002 108.8Z" fill="#FF9900"/>
<path d="M41.0001 102.8C38.6001 101.8 35.9001 102.8 34.4001 106.3C32.9001 109.8 34.0001 112.4 36.4001 113.5C38.7001 114.5 40.9001 113.7 42.0001 111.3L38.5001 109.8L39.1001 108.4L44.2001 110.6L43.6001 112C42.2001 115.3 39.0001 116.4 35.8001 115C32.3001 113.5 31.0001 109.8 32.9001 105.6C34.7001 101.4 38.3001 99.8 41.7001 101.3C44.5001 102.5 45.9001 105.2 45.3001 108L43.6001 107.3C43.7001 105.3 42.9001 103.7 41.0001 102.8Z" fill="#FF9900"/>
<path d="M59.2999 120L57.5999 119.8L50.8999 107.7H50.7999L49.5999 119L47.8999 118.8L49.2999 104.4L50.9999 104.6L57.7999 116.7H57.8999L58.9999 105.4L60.6999 105.6L59.2999 120Z" fill="#FF9900"/>
<path d="M81 108C80.2 106.5 80.8 104.6 82.3 103.8C83.8 103 85.7 103.6 86.5 105.1C87.3 106.6 86.7 108.5 85.2 109.3C83.7 110.1 81.8 109.5 81 108Z" fill="#FF9900"/>
<path d="M46.7 47.1C46.8 47.1 46.9 47.1 47.1 47.2C48.8 47.9 50.5 48.6 52.2 49.3L54 50C60.1 52.5 66.1 55 72.2 57.5L73.2 57.9C74.3 58.3 75.3 58.8 76.4 59.2C77 59.4 77 59.7 77 60C77 60.4 76.9 60.4 76.8 60.5C76.1 60.9 75.3 61.2 74.4 61.6L74.3 61.7C69.8 63.6 65.3 65.4 60.7 67.3L58.6 68C54.8 69.6 51 71.1 47.1 72.7C47 72.7 46.9 72.8 46.8 72.8C46.4 72.8 46.3 72.6 46.3 72.5C46.1 72.1 46.2 71.9 46.2 71.8C46.9 70.9 47.6 69.9 48.4 69L49.2 68C50.9 65.8 52.6 63.6 54.3 61.4C55 60.5 55 59.3 54.3 58.4C53.2 57 52.2 55.7 51.1 54.3C49.6 52.3 48 50.3 46.5 48.4C46.2 48 46.2 47.8 46.4 47.4C46.5 47.1 46.6 47.1 46.7 47.1ZM46.7 45.1C45.9 45.1 45.1 45.5 44.6 46.3C43.9 47.3 43.9 48.5 44.8 49.6C47.4 52.9 50 56.3 52.6 59.6C52.8 59.8 52.8 60 52.6 60.2C50.9 62.4 49.2 64.6 47.5 66.8C46.5 68.1 45.5 69.3 44.6 70.6C44 71.5 44 72.4 44.5 73.4C45 74.3 45.8 74.7 47 74.8C47.2 74.7 47.6 74.7 47.9 74.6C51.7 73 55.6 71.5 59.4 69.9C64.6 67.8 69.9 65.6 75.1 63.5C76 63.1 77 62.7 77.8 62.2C78.6 61.7 79 60.9 79 59.9C79 58.7 78.3 57.8 77.2 57.4C75.8 56.8 74.4 56.2 73 55.7C66.9 53.2 60.9 50.7 54.8 48.2C52.5 47.3 50.2 46.3 47.9 45.4C47.5 45.2 47.1 45.1 46.7 45.1Z" fill="#FF9900"/>
</svg>
