<?xml version="1.0" standalone="no"?>
<!DOCTYPE svg PUBLIC "-//W3C//DTD SVG 20010904//EN"
 "http://www.w3.org/TR/2001/REC-SVG-20010904/DTD/svg10.dtd">
<svg version="1.0" xmlns="http://www.w3.org/2000/svg"
 width="500.000000pt" height="500.000000pt" viewBox="0 0 500.000000 500.000000"
 preserveAspectRatio="xMidYMid meet">
<metadata>
Created by potrace 1.14, written by Peter Selinger 2001-2017
</metadata>
<g transform="translate(0.000000,500.000000) scale(0.100000,-0.100000)"
fill="#000000" stroke="none">
<path d="M555 2499 l0 -2250 180 3 c172 3 182 4 214 27 18 13 41 42 51 63 16
37 17 162 18 2106 0 1137 1 2080 1 2095 l1 28 928 -4 c895 -4 931 -4 1038 -25
444 -85 765 -306 928 -639 80 -164 116 -336 116 -566 1 -75 -1 -141 -3 -145
-3 -4 -8 -33 -11 -65 -16 -137 -86 -318 -173 -450 -61 -92 -208 -239 -303
-301 -132 -87 -321 -167 -468 -197 -34 -7 -62 -17 -62 -21 0 -4 35 -61 78
-125 44 -65 131 -197 194 -293 143 -218 526 -802 721 -1097 80 -122 150 -230
156 -240 10 -19 5 -20 -127 -20 -149 -1 -202 10 -259 53 -30 23 -140 184 -508
744 -557 847 -592 898 -637 922 l-43 22 -618 1 c-544 0 -618 -1 -621 -15 -2
-8 -4 -430 -4 -937 l0 -923 72 0 71 0 0 860 0 860 65 1 c74 0 549 0 686 -1
l91 0 25 -37 c14 -21 50 -78 80 -128 30 -49 123 -200 205 -335 83 -135 194
-317 248 -405 54 -88 121 -198 150 -245 29 -47 106 -172 171 -279 128 -209
167 -252 250 -277 38 -11 141 -14 516 -14 257 0 468 2 468 4 0 3 -54 87 -119
188 -66 101 -195 300 -288 443 -92 143 -304 469 -470 724 l-302 465 102 41
c313 126 527 313 670 585 40 77 89 207 103 271 35 168 39 216 38 414 -2 225
-28 373 -98 547 -156 390 -518 665 -1012 769 -216 45 -268 47 -1419 48 l-1090
1 0 -2251z"/>
<path d="M1364 4272 l-22 -3 0 -920 1 -920 751 4 c413 2 765 7 781 10 17 4 41
10 55 12 59 12 77 15 102 20 58 11 198 68 271 110 75 44 190 148 239 215 50
69 105 198 132 310 10 39 20 158 20 235 0 553 -319 872 -924 921 -69 6 -1370
11 -1406 6z m1272 -285 c12 -3 39 -8 59 -11 21 -4 64 -14 94 -23 321 -92 462
-342 416 -737 -30 -259 -191 -428 -465 -490 -120 -28 -193 -31 -725 -31 l-530
0 -1 645 c0 355 1 648 3 651 3 8 1119 4 1149 -4z"/>
</g>
</svg>
